{"asset":{"version":"2.0","generator":"THREE.GLTFExporter r169"},"scenes":[{"name":"AuxScene","nodes":[5]}],"scene":0,"nodes":[{"matrix":[1,0,0,0,0,1,0,0,0,0,1,0,0,0.42000000000000004,0,1],"mesh":0},{"matrix":[1,0,0,0,0,1,0,0,0,0,1,0,-0.5,0.2,-0.24,1],"mesh":1},{"matrix":[1,0,0,0,0,1,0,0,0,0,1,0,-0.5,0.2,0.24,1],"mesh":2},{"matrix":[1,0,0,0,0,1,0,0,0,0,1,0,0.5,0.2,-0.24,1],"mesh":3},{"matrix":[1,0,0,0,0,1,0,0,0,0,1,0,0.5,0.2,0.24,1],"mesh":4},{"children":[0,1,2,3,4]}],"bufferViews":[{"buffer":0,"byteOffset":0,"byteLength":288,"target":34962,"byteStride":12},{"buffer":0,"byteOffset":288,"byteLength":288,"target":34962,"byteStride":12},{"buffer":0,"byteOffset":576,"byteLength":192,"target":34962,"byteStride":8},{"buffer":0,"byteOffset":768,"byteLength":72,"target":34963},{"buffer":0,"byteOffset":840,"byteLength":1488,"target":34962,"byteStride":12},{"buffer":0,"byteOffset":2328,"byteLength":1488,"target":34962,"byteStride":12},{"buffer":0,"byteOffset":3816,"byteLength":992,"target":34962,"byteStride":8},{"buffer":0,"byteOffset":4808,"byteLength":480,"target":34963},{"buffer":0,"byteOffset":5288,"byteLength":1488,"target":34962,"byteStride":12},{"buffer":0,"byteOffset":6776,"byteLength":1488,"target":34962,"byteStride":12},{"buffer":0,"byteOffset":8264,"byteLength":992,"target":34962,"byteStride":8},{"buffer":0,"byteOffset":9256,"byteLength":480,"target":34963},{"buffer":0,"byteOffset":9736,"byteLength":1488,"target":34962,"byteStride":12},{"buffer":0,"byteOffset":11224,"byteLength":1488,"target":34962,"byteStride":12},{"buffer":0,"byteOffset":12712,"byteLength":992,"target":34962,"byteStride":8},{"buffer":0,"byteOffset":13704,"byteLength":480,"target":34963},{"buffer":0,"byteOffset":14184,"byteLength":1488,"target":34962,"byteStride":12},{"buffer":0,"byteOffset":15672,"byteLength":1488,"target":34962,"byteStride":12},{"buffer":0,"byteOffset":17160,"byteLength":992,"target":34962,"byteStride":8},{"buffer":0,"byteOffset":18152,"byteLength":480,"target":34963}],"buffers":[{"byteLength":18632,"uri":"data:application/octet-stream;base64,"}],"accessors":[{"bufferView":0,"componentType":5126,"count":24,"max":[0.550000011920929,0.019999999552965164,0.2750000059604645],"min":[-0.550000011920929,-0.019999999552965164,-0.2750000059604645],"type":"VEC3"},{"bufferView":1,"componentType":5126,"count":24,"max":[1,1,1],"min":[-1,-1,-1],"type":"VEC3"},{"bufferView":2,"componentType":5126,"count":24,"max":[1,1],"min":[0,0],"type":"VEC2"},{"bufferView":3,"componentType":5123,"count":36,"max":[23],"min":[0],"type":"SCALAR"},{"bufferView":4,"componentType":5126,"count":124,"max":[0.02500000037252903,0.20000000298023224,0.02500000037252903],"min":[-0.02500000037252903,-0.20000000298023224,-0.02500000037252903],"type":"VEC3"},{"bufferView":5,"componentType":5126,"count":124,"max":[1,1,1],"min":[-1,-1,-1],"type":"VEC3"},{"bufferView":6,"componentType":5126,"count":124,"max":[1,1],"min":[0,0],"type":"VEC2"},{"bufferView":7,"componentType":5123,"count":240,"max":[123],"min":[0],"type":"SCALAR"},{"bufferView":8,"componentType":5126,"count":124,"max":[0.02500000037252903,0.20000000298023224,0.02500000037252903],"min":[-0.02500000037252903,-0.20000000298023224,-0.02500000037252903],"type":"VEC3"},{"bufferView":9,"componentType":5126,"count":124,"max":[1,1,1],"min":[-1,-1,-1],"type":"VEC3"},{"bufferView":10,"componentType":5126,"count":124,"max":[1,1],"min":[0,0],"type":"VEC2"},{"bufferView":11,"componentType":5123,"count":240,"max":[123],"min":[0],"type":"SCALAR"},{"bufferView":12,"componentType":5126,"count":124,"max":[0.02500000037252903,0.20000000298023224,0.02500000037252903],"min":[-0.02500000037252903,-0.20000000298023224,-0.02500000037252903],"type":"VEC3"},{"bufferView":13,"componentType":5126,"count":124,"max":[1,1,1],"min":[-1,-1,-1],"type":"VEC3"},{"bufferView":14,"componentType":5126,"count":124,"max":[1,1],"min":[0,0],"type":"VEC2"},{"bufferView":15,"componentType":5123,"count":240,"max":[123],"min":[0],"type":"SCALAR"},{"bufferView":16,"componentType":5126,"count":124,"max":[0.02500000037252903,0.20000000298023224,0.02500000037252903],"min":[-0.02500000037252903,-0.20000000298023224,-0.02500000037252903],"type":"VEC3"},{"bufferView":17,"componentType":5126,"count":124,"max":[1,1,1],"min":[-1,-1,-1],"type":"VEC3"},{"bufferView":18,"componentType":5126,"count":124,"max":[1,1],"min":[0,0],"type":"VEC2"},{"bufferView":19,"componentType":5123,"count":240,"max":[123],"min":[0],"type":"SCALAR"}],"materials":[{"pbrMetallicRoughness":{"baseColorFactor":[0.43415363616478553,0.21586050010324417,0.08021982030622662,1],"metallicFactor":0,"roughnessFactor":0.6}}],"meshes":[{"primitives":[{"mode":4,"attributes":{"POSITION":0,"NORMAL":1,"TEXCOORD_0":2},"indices":3,"material":0}]},{"primitives":[{"mode":4,"attributes":{"POSITION":4,"NORMAL":5,"TEXCOORD_0":6},"indices":7,"material":0}]},{"primitives":[{"mode":4,"attributes":{"POSITION":8,"NORMAL":9,"TEXCOORD_0":10},"indices":11,"material":0}]},{"primitives":[{"mode":4,"attributes":{"POSITION":12,"NORMAL":13,"TEXCOORD_0":14},"indices":15,"material":0}]},{"primitives":[{"mode":4,"attributes":{"POSITION":16,"NORMAL":17,"TEXCOORD_0":18},"indices":19,"material":0}]}]}