{"asset":{"version":"2.0","generator":"THREE.GLTFExporter r169"},"scenes":[{"name":"AuxScene","nodes":[6]}],"scene":0,"nodes":[{"matrix":[1,0,0,0,0,1,0,0,0,0,1,0,0,0.46,0,1],"mesh":0},{"matrix":[1,0,0,0,0,1,0,0,0,0,1,0,0,0.67,-0.19,1],"mesh":1},{"matrix":[1,0,0,0,0,1,0,0,0,0,1,0,-0.18,0.22,-0.18,1],"mesh":2},{"matrix":[1,0,0,0,0,1,0,0,0,0,1,0,-0.18,0.22,0.18,1],"mesh":3},{"matrix":[1,0,0,0,0,1,0,0,0,0,1,0,0.18,0.22,-0.18,1],"mesh":4},{"matrix":[1,0,0,0,0,1,0,0,0,0,1,0,0.18,0.22,0.18,1],"mesh":5},{"children":[0,1,2,3,4,5]}],"bufferViews":[{"buffer":0,"byteOffset":0,"byteLength":288,"target":34962,"byteStride":12},{"buffer":0,"byteOffset":288,"byteLength":288,"target":34962,"byteStride":12},{"buffer":0,"byteOffset":576,"byteLength":192,"target":34962,"byteStride":8},{"buffer":0,"byteOffset":768,"byteLength":72,"target":34963},{"buffer":0,"byteOffset":840,"byteLength":288,"target":34962,"byteStride":12},{"buffer":0,"byteOffset":1128,"byteLength":288,"target":34962,"byteStride":12},{"buffer":0,"byteOffset":1416,"byteLength":192,"target":34962,"byteStride":8},{"buffer":0,"byteOffset":1608,"byteLength":72,"target":34963},{"buffer":0,"byteOffset":1680,"byteLength":1488,"target":34962,"byteStride":12},{"buffer":0,"byteOffset":3168,"byteLength":1488,"target":34962,"byteStride":12},{"buffer":0,"byteOffset":4656,"byteLength":992,"target":34962,"byteStride":8},{"buffer":0,"byteOffset":5648,"byteLength":480,"target":34963},{"buffer":0,"byteOffset":6128,"byteLength":1488,"target":34962,"byteStride":12},{"buffer":0,"byteOffset":7616,"byteLength":1488,"target":34962,"byteStride":12},{"buffer":0,"byteOffset":9104,"byteLength":992,"target":34962,"byteStride":8},{"buffer":0,"byteOffset":10096,"byteLength":480,"target":34963},{"buffer":0,"byteOffset":10576,"byteLength":1488,"target":34962,"byteStride":12},{"buffer":0,"byteOffset":12064,"byteLength":1488,"target":34962,"byteStride":12},{"buffer":0,"byteOffset":13552,"byteLength":992,"target":34962,"byteStride":8},{"buffer":0,"byteOffset":14544,"byteLength":480,"target":34963},{"buffer":0,"byteOffset":15024,"byteLength":1488,"target":34962,"byteStride":12},{"buffer":0,"byteOffset":16512,"byteLength":1488,"target":34962,"byteStride":12},{"buffer":0,"byteOffset":18000,"byteLength":992,"target":34962,"byteStride":8},{"buffer":0,"byteOffset":18992,"byteLength":480,"target":34963}],"buffers":[{"byteLength":19472,"uri":"data:application/octet-stream;base64,"}],"accessors":[{"bufferView":0,"componentType":5126,"count":24,"max":[0.20999999344348907,0.019999999552965164,0.20999999344348907],"min":[-0.20999999344348907,-0.019999999552965164,-0.20999999344348907],"type":"VEC3"},{"bufferView":1,"componentType":5126,"count":24,"max":[1,1,1],"min":[-1,-1,-1],"type":"VEC3"},{"bufferView":2,"componentType":5126,"count":24,"max":[1,1],"min":[0,0],"type":"VEC2"},{"bufferView":3,"componentType":5123,"count":36,"max":[23],"min":[0],"type":"SCALAR"},{"bufferView":4,"componentType":5126,"count":24,"max":[0.20999999344348907,0.20999999344348907,0.019999999552965164],"min":[-0.20999999344348907,-0.20999999344348907,-0.019999999552965164],"type":"VEC3"},{"bufferView":5,"componentType":5126,"count":24,"max":[1,1,1],"min":[-1,-1,-1],"type":"VEC3"},{"bufferView":6,"componentType":5126,"count":24,"max":[1,1],"min":[0,0],"type":"VEC2"},{"bufferView":7,"componentType":5123,"count":36,"max":[23],"min":[0],"type":"SCALAR"},{"bufferView":8,"componentType":5126,"count":124,"max":[0.019999999552965164,0.2199999988079071,0.019999999552965164],"min":[-0.019999999552965164,-0.2199999988079071,-0.019999999552965164],"type":"VEC3"},{"bufferView":9,"componentType":5126,"count":124,"max":[1,1,1],"min":[-1,-1,-1],"type":"VEC3"},{"bufferView":10,"componentType":5126,"count":124,"max":[1,1],"min":[0,0],"type":"VEC2"},{"bufferView":11,"componentType":5123,"count":240,"max":[123],"min":[0],"type":"SCALAR"},{"bufferView":12,"componentType":5126,"count":124,"max":[0.019999999552965164,0.2199999988079071,0.019999999552965164],"min":[-0.019999999552965164,-0.2199999988079071,-0.019999999552965164],"type":"VEC3"},{"bufferView":13,"componentType":5126,"count":124,"max":[1,1,1],"min":[-1,-1,-1],"type":"VEC3"},{"bufferView":14,"componentType":5126,"count":124,"max":[1,1],"min":[0,0],"type":"VEC2"},{"bufferView":15,"componentType":5123,"count":240,"max":[123],"min":[0],"type":"SCALAR"},{"bufferView":16,"componentType":5126,"count":124,"max":[0.019999999552965164,0.2199999988079071,0.019999999552965164],"min":[-0.019999999552965164,-0.2199999988079071,-0.019999999552965164],"type":"VEC3"},{"bufferView":17,"componentType":5126,"count":124,"max":[1,1,1],"min":[-1,-1,-1],"type":"VEC3"},{"bufferView":18,"componentType":5126,"count":124,"max":[1,1],"min":[0,0],"type":"VEC2"},{"bufferView":19,"componentType":5123,"count":240,"max":[123],"min":[0],"type":"SCALAR"},{"bufferView":20,"componentType":5126,"count":124,"max":[0.019999999552965164,0.2199999988079071,0.019999999552965164],"min":[-0.019999999552965164,-0.2199999988079071,-0.019999999552965164],"type":"VEC3"},{"bufferView":21,"componentType":5126,"count":124,"max":[1,1,1],"min":[-1,-1,-1],"type":"VEC3"},{"bufferView":22,"componentType":5126,"count":124,"max":[1,1],"min":[0,0],"type":"VEC2"},{"bufferView":23,"componentType":5123,"count":240,"max":[123],"min":[0],"type":"SCALAR"}],"materials":[{"pbrMetallicRoughness":{"baseColorFactor":[0.3967552307153359,0.20155625378383743,0.08021982030622662,1],"metallicFactor":0,"roughnessFactor":0.65}}],"meshes":[{"primitives":[{"mode":4,"attributes":{"POSITION":0,"NORMAL":1,"TEXCOORD_0":2},"indices":3,"material":0}]},{"primitives":[{"mode":4,"attributes":{"POSITION":4,"NORMAL":5,"TEXCOORD_0":6},"indices":7,"material":0}]},{"primitives":[{"mode":4,"attributes":{"POSITION":8,"NORMAL":9,"TEXCOORD_0":10},"indices":11,"material":0}]},{"primitives":[{"mode":4,"attributes":{"POSITION":12,"NORMAL":13,"TEXCOORD_0":14},"indices":15,"material":0}]},{"primitives":[{"mode":4,"attributes":{"POSITION":16,"NORMAL":17,"TEXCOORD_0":18},"indices":19,"material":0}]},{"primitives":[{"mode":4,"attributes":{"POSITION":20,"NORMAL":21,"TEXCOORD_0":22},"indices":23,"material":0}]}]}