{"asset":{"version":"2.0","generator":"THREE.GLTFExporter r169"},"scenes":[{"name":"AuxScene","nodes":[3]}],"scene":0,"nodes":[{"matrix":[1,0,0,0,0,1,0,0,0,0,1,0,0,0.01,0,1],"mesh":0},{"matrix":[1,0,0,0,0,1,0,0,0,0,1,0,0,0.66,0,1],"mesh":1},{"matrix":[1,0,0,0,0,1,0,0,0,0,1,0,0,1.45,0,1],"mesh":2},{"children":[0,1,2]}],"bufferViews":[{"buffer":0,"byteOffset":0,"byteLength":1488,"target":34962,"byteStride":12},{"buffer":0,"byteOffset":1488,"byteLength":1488,"target":34962,"byteStride":12},{"buffer":0,"byteOffset":2976,"byteLength":992,"target":34962,"byteStride":8},{"buffer":0,"byteOffset":3968,"byteLength":480,"target":34963},{"buffer":0,"byteOffset":4448,"byteLength":1488,"target":34962,"byteStride":12},{"buffer":0,"byteOffset":5936,"byteLength":1488,"target":34962,"byteStride":12},{"buffer":0,"byteOffset":7424,"byteLength":992,"target":34962,"byteStride":8},{"buffer":0,"byteOffset":8416,"byteLength":480,"target":34963},{"buffer":0,"byteOffset":8896,"byteLength":1488,"target":34962,"byteStride":12},{"buffer":0,"byteOffset":10384,"byteLength":1488,"target":34962,"byteStride":12},{"buffer":0,"byteOffset":11872,"byteLength":992,"target":34962,"byteStride":8},{"buffer":0,"byteOffset":12864,"byteLength":480,"target":34963}],"buffers":[{"byteLength":13344,"uri":"data:application/octet-stream;base64,"}],"accessors":[{"bufferView":0,"componentType":5126,"count":124,"max":[0.1599999964237213,0.009999999776482582,0.1599999964237213],"min":[-0.1599999964237213,-0.009999999776482582,-0.1599999964237213],"type":"VEC3"},{"bufferView":1,"componentType":5126,"count":124,"max":[1,1,1],"min":[-1,-1,-1],"type":"VEC3"},{"bufferView":2,"componentType":5126,"count":124,"max":[1,1],"min":[0,0],"type":"VEC2"},{"bufferView":3,"componentType":5123,"count":240,"max":[123],"min":[0],"type":"SCALAR"},{"bufferView":4,"componentType":5126,"count":124,"max":[0.014999999664723873,0.6499999761581421,0.014999999664723873],"min":[-0.014999999664723873,-0.6499999761581421,-0.014999999664723873],"type":"VEC3"},{"bufferView":5,"componentType":5126,"count":124,"max":[1,1,1],"min":[-1,-1,-1],"type":"VEC3"},{"bufferView":6,"componentType":5126,"count":124,"max":[1,1],"min":[0,0],"type":"VEC2"},{"bufferView":7,"componentType":5123,"count":240,"max":[123],"min":[0],"type":"SCALAR"},{"bufferView":8,"componentType":5126,"count":124,"max":[0.1599999964237213,0.14000000059604645,0.1599999964237213],"min":[-0.1599999964237213,-0.14000000059604645,-0.1599999964237213],"type":"VEC3"},{"bufferView":9,"componentType":5126,"count":124,"max":[0.9844275712966919,1,0.9844275712966919],"min":[-0.9844275712966919,-1,-0.9844275712966919],"type":"VEC3"},{"bufferView":10,"componentType":5126,"count":124,"max":[1,1],"min":[0,0],"type":"VEC2"},{"bufferView":11,"componentType":5123,"count":240,"max":[123],"min":[0],"type":"SCALAR"}],"materials":[{"pbrMetallicRoughness":{"baseColorFactor":[0.26225065751888765,0.28314874041918053,0.3139887133649649,1],"metallicFactor":0.75,"roughnessFactor":0.35}},{"pbrMetallicRoughness":{"baseColorFactor":[0.8713671191959567,0.775822218312646,0.5775804404214573,1],"metallicFactor":0,"roughnessFactor":0.9}}],"meshes":[{"primitives":[{"mode":4,"attributes":{"POSITION":0,"NORMAL":1,"TEXCOORD_0":2},"indices":3,"material":0}]},{"primitives":[{"mode":4,"attributes":{"POSITION":4,"NORMAL":5,"TEXCOORD_0":6},"indices":7,"material":0}]},{"primitives":[{"mode":4,"attributes":{"POSITION":8,"NORMAL":9,"TEXCOORD_0":10},"indices":11,"material":1}]}]}