{"asset":{"version":"2.0","generator":"THREE.GLTFExporter r169"},"scenes":[{"name":"AuxScene","nodes":[2]}],"scene":0,"nodes":[{"matrix":[1,0,0,0,0,1,0,0,0,0,1,0,0,0.16,0,1],"mesh":0},{"matrix":[1,0,0,0,0,1.25,0,0,0,0,1,0,0,0.68,0,1],"mesh":1},{"children":[0,1]}],"bufferViews":[{"buffer":0,"byteOffset":0,"byteLength":1488,"target":34962,"byteStride":12},{"buffer":0,"byteOffset":1488,"byteLength":1488,"target":34962,"byteStride":12},{"buffer":0,"byteOffset":2976,"byteLength":992,"target":34962,"byteStride":8},{"buffer":0,"byteOffset":3968,"byteLength":480,"target":34963},{"buffer":0,"byteOffset":4448,"byteLength":3780,"target":34962,"byteStride":12},{"buffer":0,"byteOffset":8228,"byteLength":3780,"target":34962,"byteStride":12},{"buffer":0,"byteOffset":12008,"byteLength":2520,"target":34962,"byteStride":8},{"buffer":0,"byteOffset":14528,"byteLength":3120,"target":34963}],"buffers":[{"byteLength":17648,"uri":"data:application/octet-stream;base64,"}],"accessors":[{"bufferView":0,"componentType":5126,"count":124,"max":[0.2199999988079071,0.1599999964237213,0.2199999988079071],"min":[-0.2199999988079071,-0.1599999964237213,-0.2199999988079071],"type":"VEC3"},{"bufferView":1,"componentType":5126,"count":124,"max":[0.9828721880912781,1,0.9828721880912781],"min":[-0.9828721880912781,-1,-0.9828721880912781],"type":"VEC3"},{"bufferView":2,"componentType":5126,"count":124,"max":[1,1],"min":[0,0],"type":"VEC2"},{"bufferView":3,"componentType":5123,"count":240,"max":[123],"min":[0],"type":"SCALAR"},{"bufferView":4,"componentType":5126,"count":315,"max":[0.3199999928474426,0.3199999928474426,0.3199999928474426],"min":[-0.3199999928474426,-0.3199999928474426,-0.3199999928474426],"type":"VEC3"},{"bufferView":5,"componentType":5126,"count":315,"max":[1,1,1],"min":[-1,-1,-1],"type":"VEC3"},{"bufferView":6,"componentType":5126,"count":315,"max":[1.024999976158142,1],"min":[-0.02500000037252903,0],"type":"VEC2"},{"bufferView":7,"componentType":5123,"count":1560,"max":[314],"min":[0],"type":"SCALAR"}],"materials":[{"pbrMetallicRoughness":{"baseColorFactor":[0.46207699964472876,0.13013647668074665,0.04373502925049377,1],"metallicFactor":0,"roughnessFactor":0.9}},{"pbrMetallicRoughness":{"baseColorFactor":[0.04970656597728775,0.20507873637973145,0.0343398068028541,1],"metallicFactor":0,"roughnessFactor":1}}],"meshes":[{"primitives":[{"mode":4,"attributes":{"POSITION":0,"NORMAL":1,"TEXCOORD_0":2},"indices":3,"material":0}]},{"primitives":[{"mode":4,"attributes":{"POSITION":4,"NORMAL":5,"TEXCOORD_0":6},"indices":7,"material":1}]}]}