{"asset":{"version":"2.0","generator":"THREE.GLTFExporter r169"},"scenes":[{"name":"AuxScene","nodes":[3]}],"scene":0,"nodes":[{"matrix":[1,0,0,0,0,1,0,0,0,0,1,0,0,0.575,-0.28,1],"mesh":0},{"matrix":[1,0,0,0,0,1,0,0,0,0,1,0,0,0.2,0.02,1],"mesh":1},{"matrix":[1,0,0,0,0,1,0,0,0,0,1,0,0,0.41,0.02,1],"mesh":2},{"children":[0,1,2]}],"bufferViews":[{"buffer":0,"byteOffset":0,"byteLength":288,"target":34962,"byteStride":12},{"buffer":0,"byteOffset":288,"byteLength":288,"target":34962,"byteStride":12},{"buffer":0,"byteOffset":576,"byteLength":192,"target":34962,"byteStride":8},{"buffer":0,"byteOffset":768,"byteLength":72,"target":34963},{"buffer":0,"byteOffset":840,"byteLength":1488,"target":34962,"byteStride":12},{"buffer":0,"byteOffset":2328,"byteLength":1488,"target":34962,"byteStride":12},{"buffer":0,"byteOffset":3816,"byteLength":992,"target":34962,"byteStride":8},{"buffer":0,"byteOffset":4808,"byteLength":480,"target":34963},{"buffer":0,"byteOffset":5288,"byteLength":1488,"target":34962,"byteStride":12},{"buffer":0,"byteOffset":6776,"byteLength":1488,"target":34962,"byteStride":12},{"buffer":0,"byteOffset":8264,"byteLength":992,"target":34962,"byteStride":8},{"buffer":0,"byteOffset":9256,"byteLength":480,"target":34963}],"buffers":[{"byteLength":9736,"uri":"data:application/octet-stream;base64,"}],"accessors":[{"bufferView":0,"componentType":5126,"count":24,"max":[0.1899999976158142,0.17499999701976776,0.09000000357627869],"min":[-0.1899999976158142,-0.17499999701976776,-0.09000000357627869],"type":"VEC3"},{"bufferView":1,"componentType":5126,"count":24,"max":[1,1,1],"min":[-1,-1,-1],"type":"VEC3"},{"bufferView":2,"componentType":5126,"count":24,"max":[1,1],"min":[0,0],"type":"VEC2"},{"bufferView":3,"componentType":5123,"count":36,"max":[23],"min":[0],"type":"SCALAR"},{"bufferView":4,"componentType":5126,"count":124,"max":[0.2199999988079071,0.20000000298023224,0.2199999988079071],"min":[-0.2199999988079071,-0.20000000298023224,-0.2199999988079071],"type":"VEC3"},{"bufferView":5,"componentType":5126,"count":124,"max":[0.9987523555755615,1,0.9987523555755615],"min":[-0.9987523555755615,-1,-0.9987523555755615],"type":"VEC3"},{"bufferView":6,"componentType":5126,"count":124,"max":[1,1],"min":[0,0],"type":"VEC2"},{"bufferView":7,"componentType":5123,"count":240,"max":[123],"min":[0],"type":"SCALAR"},{"bufferView":8,"componentType":5126,"count":124,"max":[0.20999999344348907,0.009999999776482582,0.20999999344348907],"min":[-0.20999999344348907,-0.009999999776482582,-0.20999999344348907],"type":"VEC3"},{"bufferView":9,"componentType":5126,"count":124,"max":[1,1,1],"min":[-1,-1,-1],"type":"VEC3"},{"bufferView":10,"componentType":5126,"count":124,"max":[1,1],"min":[0,0],"type":"VEC2"},{"bufferView":11,"componentType":5123,"count":240,"max":[123],"min":[0],"type":"SCALAR"}],"materials":[{"pbrMetallicRoughness":{"baseColorFactor":[0.9046611743890203,0.9046611743890203,0.8879231178794776,1],"metallicFactor":0,"roughnessFactor":0.3}},{"pbrMetallicRoughness":{"baseColorFactor":[0.8069522576650873,0.8069522576650873,0.8069522576650873,1],"metallicFactor":0,"roughnessFactor":0.4}}],"meshes":[{"primitives":[{"mode":4,"attributes":{"POSITION":0,"NORMAL":1,"TEXCOORD_0":2},"indices":3,"material":0}]},{"primitives":[{"mode":4,"attributes":{"POSITION":4,"NORMAL":5,"TEXCOORD_0":6},"indices":7,"material":0}]},{"primitives":[{"mode":4,"attributes":{"POSITION":8,"NORMAL":9,"TEXCOORD_0":10},"indices":11,"material":1}]}]}